<svg xmlns="http://www.w3.org/2000/svg" width="104.46" height="32" viewBox="0 0 103.2 32"><path d="M49.4 8.55v5.73a1.42 1.42 0 0 1-1.6 1.6h-3.44V23h4.54a.74.74 0 0 1 .83.84v.08a.74.74 0 0 1-.83.84h-4.71a1.41 1.41 0 0 1-1.59-1.6v-7.45a1.41 1.41 0 0 1 1.59-1.6h3.42V8.72h-4.47a.74.74 0 0 1-.84-.84v-.09a.74.74 0 0 1 .84-.79h4.66a1.41 1.41 0 0 1 1.6 1.55zM59.58 10v4a11 11 0 0 1-1.92 6.31 15.34 15.34 0 0 1-5.55 4.8.71.71 0 0 1-1.11-.37v-.09a.77.77 0 0 1 .4-1.13 13.33 13.33 0 0 0 4.86-4.16A9.43 9.43 0 0 0 57.82 14v-4a.74.74 0 0 1 .84-.84h.08a.74.74 0 0 1 .84.84zm-6-3v1.34h6.53a.72.72 0 0 1 .82.82v.08a.73.73 0 0 1-.82.84h-6.7a1.63 1.63 0 0 1-1.19-.4 1.6 1.6 0 0 1-.41-1.2V7a.75.75 0 0 1 .86-.84h.09a.74.74 0 0 1 .84.84zm.08 5.48V14a9.18 9.18 0 0 0 1.67 5.41 13.53 13.53 0 0 0 5.14 4.12.79.79 0 0 1 .44 1.13v.09a.72.72 0 0 1-1.1.4 15.37 15.37 0 0 1-5.89-4.8 10.88 10.88 0 0 1-2-6.35v-1.55a.74.74 0 0 1 .84-.84h.08a.74.74 0 0 1 .84.84zM64.09 7a1.51 1.51 0 0 1 1.12-.39H80a1.51 1.51 0 0 1 1.16.39 1.54 1.54 0 0 1 .39 1.13v15.24a1.54 1.54 0 0 1-.39 1.13 1.51 1.51 0 0 1-1.12.39H65.21a1.51 1.51 0 0 1-1.12-.39 1.54 1.54 0 0 1-.39-1.13V8.09A1.54 1.54 0 0 1 64.09 7zm15.76 1.23H65.4v15h14.45zM69 9.1a.55.55 0 0 1 .19.48l-.12.19h7a1.66 1.66 0 0 1 1 .27 1 1 0 0 1 .39.81 2.43 2.43 0 0 1-.43 1.23 8.67 8.67 0 0 1-2.36 2.26A14.76 14.76 0 0 1 71.28 16a20.59 20.59 0 0 1-4.11 1 .65.65 0 0 1-.84-.65v-.08c-.08-.48.13-.75.63-.82A18.22 18.22 0 0 0 72.29 14a8.71 8.71 0 0 0 3.34-2.65H69a1.6 1.6 0 0 1-1.07-.35 1.26 1.26 0 0 1-.37-1v-.4a.59.59 0 0 1 .2-.45.86.86 0 0 1 .58-.15h.08a1 1 0 0 1 .58.1zm8.2 12.36v.09a.66.66 0 0 1-.82.63l-7.7-1a.63.63 0 0 1-.61-.8v-.08a.63.63 0 0 1 .8-.63l7.7 1a.63.63 0 0 1 .63.79zm-3.53-7.17a18.11 18.11 0 0 0 4.52 1.19.66.66 0 0 1 .63.84v.08a.66.66 0 0 1-.84.65 22 22 0 0 1-5.22-1.41 17.19 17.19 0 0 1-4.13-2.41.63.63 0 0 1-.12-1v-.08a.71.71 0 0 1 1.13-.15 19 19 0 0 0 4.03 2.29zm2.38 4.21v.09a.62.62 0 0 1-.78.6l-5.46-.71c-.46 0-.66-.3-.61-.78v-.08A.65.65 0 0 1 70 17l5.44.71a.61.61 0 0 1 .61.79zM103.2 23.79v.09a.72.72 0 0 1-.82.8H84.87a.72.72 0 0 1-.82-.8v-.09a.73.73 0 0 1 .82-.82h17.51a.73.73 0 0 1 .82.82zm-1-15.47a1.61 1.61 0 0 1 .38 1.15v1.28a.72.72 0 0 1-.81.82h-.09a.72.72 0 0 1-.82-.82V9.64H86.34v1.11a.72.72 0 0 1-.82.82h-.09a.72.72 0 0 1-.81-.82V9.47A1.61 1.61 0 0 1 85 8.32a1.52 1.52 0 0 1 1.15-.4h14.95a1.52 1.52 0 0 1 1.15.4zm-.5 4.83v.08a.71.71 0 0 1-.8.8H86.3a.71.71 0 0 1-.8-.8v-.08a.7.7 0 0 1 .8-.8H101a.7.7 0 0 1 .75.8zm-.52 5.06v.08a.71.71 0 0 1-.8.8H86.82a.71.71 0 0 1-.8-.8v-.08a.71.71 0 0 1 .8-.8h13.61a.71.71 0 0 1 .8.8zM94.51 6.83v1.11a.74.74 0 0 1-.84.84h-.09a.74.74 0 0 1-.84-.84V6.83a.76.76 0 0 1 .84-.83h.09a.76.76 0 0 1 .84.83zm0 7.2v9a.74.74 0 0 1-.84.84h-.09a.74.74 0 0 1-.84-.84V14a.74.74 0 0 1 .84-.84h.09a.74.74 0 0 1 .84.84zm4.64 6.24.73 1.11a.73.73 0 0 1-.33 1.11h-.09a.73.73 0 0 1-1.11-.33l-.73-1.12A.72.72 0 0 1 98 20h.09a.74.74 0 0 1 1.06.27z" style="fill:#333"/><g><rect width="28.75" height="28.75" rx="5.63" style="fill:#ff5c26"/><path d="M13.63 8h12.75A5.63 5.63 0 0 1 32 13.63v12.75A5.62 5.62 0 0 1 26.38 32H13.62A5.62 5.62 0 0 1 8 26.38V13.62A5.63 5.63 0 0 1 13.63 8z" style="fill:#ffc926"/><path d="M28.75 28.05v-6.92a.7.7 0 0 0-1.4 0v5.23l-5.6-5.6-1-1-.12-.12a.7.7 0 0 0-1 1l.12.12 1 1 5.6 5.6h-5.22a.7.7 0 0 0 0 1.4h6.92a.7.7 0 0 0 .7-.71z" style="fill:#fff"/></g></svg>