<?xml version="1.0" standalone="no"?>
<!DOCTYPE svg PUBLIC "-//W3C//DTD SVG 20010904//EN"
 "http://www.w3.org/TR/2001/REC-SVG-20010904/DTD/svg10.dtd">
<svg version="1.0" xmlns="http://www.w3.org/2000/svg"
 width="299.000000pt" height="98.000000pt" viewBox="0 0 299.000000 98.000000"
 preserveAspectRatio="xMidYMid meet">

<g transform="translate(0.000000,98.000000) scale(0.100000,-0.100000)"
fill="#000000" stroke="#000000" stroke-width="12" stroke-linecap="round" stroke-linejoin="round">
<path d="M832 968 c-7 -7 -12 -42 -12 -88 0 -79 -35 -243 -85 -395 -39 -120
-150 -339 -197 -388 l-40 -42 -18 23 c-23 28 -35 129 -25 219 4 38 20 133 37
213 16 80 32 179 35 221 5 69 4 78 -16 98 -11 11 -28 21 -37 21 -29 0 -124
-103 -203 -219 -137 -203 -271 -449 -271 -495 0 -32 15 -48 41 -44 17 2 36 25
73 88 84 143 206 340 270 434 80 117 79 123 30 -239 -27 -198 -6 -329 56 -364
23 -12 30 -12 64 4 107 51 285 405 341 679 22 109 29 225 16 259 -11 29 -38
36 -59 15z"/>
<path d="M2013 536 c-22 -7 -54 -22 -70 -33 -21 -15 -32 -18 -44 -10 -45 29
-124 -39 -176 -149 -38 -82 -76 -118 -155 -145 -38 -13 -58 -14 -79 -7 -34 12
-89 72 -89 97 0 10 32 47 71 83 55 51 70 71 67 89 -6 43 -48 36 -105 -15 -28
-26 -54 -46 -57 -46 -4 0 -11 11 -16 25 -12 33 -37 42 -57 22 -13 -13 -14 -23
-4 -61 14 -56 3 -81 -62 -149 -109 -111 -253 -127 -293 -31 -22 51 -15 65 37
80 87 26 189 113 204 176 5 20 1 32 -15 48 -50 50 -175 0 -244 -97 -76 -108
-75 -214 3 -287 41 -39 118 -47 183 -18 l45 20 -1 -37 c-1 -30 3 -37 20 -39
17 -2 34 14 76 75 67 94 98 125 106 103 10 -29 73 -79 107 -86 62 -11 142 13
191 58 l22 19 7 -47 c7 -52 41 -94 75 -94 119 0 258 233 210 351 -12 29 -12
33 11 50 49 38 129 37 149 -2 9 -16 1 -47 -48 -172 -33 -84 -62 -159 -65 -167
-13 -41 46 -69 69 -33 6 10 32 68 57 128 26 61 59 123 74 139 24 26 27 27 39
12 6 -9 15 -34 19 -54 19 -106 80 -145 167 -108 14 6 16 1 16 -38 -1 -48 18
-80 53 -91 32 -11 90 24 170 102 l79 76 0 -54 c1 -140 86 -143 186 -6 65 88
54 98 -28 23 -39 -37 -78 -65 -87 -64 -12 2 -17 20 -21 70 -9 114 -28 114
-157 -2 -48 -44 -94 -80 -100 -80 -39 0 21 143 86 205 40 38 45 40 109 40 79
1 91 17 42 59 -25 20 -42 26 -80 26 -68 0 -130 -44 -195 -140 -76 -112 -150
-140 -180 -67 -7 18 -15 58 -19 91 -3 32 -11 67 -17 77 -10 20 -44 25 -69 9
-12 -7 -16 -4 -20 17 -11 58 -109 88 -197 59z m-893 -85 c0 -13 -107 -109
-141 -127 -25 -13 -29 -13 -29 0 0 24 50 76 104 106 54 32 66 35 66 21z m800
-154 c-24 -63 -102 -157 -131 -157 -46 0 -44 82 6 180 29 57 41 67 48 40 7
-28 18 -25 58 16 l34 35 3 -29 c2 -16 -6 -54 -18 -85z"/>
</g>
</svg>
