<?xml version="1.0" standalone="no"?>
<!DOCTYPE svg PUBLIC "-//W3C//DTD SVG 20010904//EN"
 "http://www.w3.org/TR/2001/REC-SVG-20010904/DTD/svg10.dtd">
<svg version="1.0" xmlns="http://www.w3.org/2000/svg"
 width="385.000000pt" height="98.000000pt" viewBox="0 0 385.000000 98.000000"
 preserveAspectRatio="xMidYMid meet">

<g transform="translate(0.000000,98.000000) scale(0.100000,-0.100000)"
fill="#000000" stroke="none">
<path d="M1385 969 c-120 -13 -394 -65 -541 -104 -448 -119 -730 -270 -813
-437 -52 -103 -37 -184 48 -261 66 -59 142 -92 251 -107 36 -5 76 -12 90 -16
23 -7 24 -6 11 10 -21 25 -78 52 -171 82 -47 14 -94 37 -112 53 -27 24 -32 36
-36 88 -3 47 0 68 17 101 76 148 362 294 796 405 196 50 549 116 560 105 2 -2
-47 -63 -110 -136 -260 -304 -433 -563 -423 -634 5 -34 71 -63 108 -48 14 6
83 73 153 148 162 177 367 378 486 476 96 79 228 172 235 165 2 -2 -52 -74
-121 -159 -229 -285 -319 -430 -330 -534 -14 -132 103 -213 193 -134 45 40 87
105 80 124 -9 22 -36 16 -113 -25 -65 -34 -72 -36 -76 -19 -7 25 9 81 41 143
46 92 120 195 356 500 47 61 86 119 86 131 0 29 -31 54 -67 54 -68 0 -309
-173 -535 -384 -77 -72 -183 -171 -236 -221 -53 -49 -92 -83 -87 -75 79 135
187 281 358 488 70 84 127 159 127 165 0 22 -15 36 -53 52 -39 16 -52 17 -172
4z"/>
<path d="M2285 495 c-51 -51 -125 -160 -125 -184 0 -9 -26 -41 -57 -72 -79
-75 -93 -86 -135 -104 -33 -13 -38 -13 -52 1 -29 29 -18 105 14 97 26 -7 64
21 119 91 65 81 78 110 61 131 -19 23 -85 55 -114 55 -52 0 -127 -111 -162
-242 -18 -68 -18 -93 2 -134 19 -40 91 -79 126 -68 41 12 113 71 162 133 42
52 52 59 75 55 24 -5 29 -1 48 43 l21 48 1 -67 c1 -74 -5 -83 -96 -150 -49
-36 -52 -45 -20 -57 29 -11 43 -5 100 41 l47 39 30 -30 c32 -32 84 -47 123
-37 13 3 41 19 62 36 45 36 47 36 60 8 13 -28 70 -57 98 -50 12 3 49 33 82 67
35 36 72 65 90 69 17 4 39 10 49 13 15 4 18 2 11 -13 -4 -11 -13 -38 -21 -62
-12 -39 -12 -43 8 -62 12 -11 29 -20 37 -20 10 1 39 48 78 130 47 96 77 143
117 187 61 64 69 57 35 -29 -24 -60 -20 -100 13 -135 25 -27 45 -29 93 -9 l33
14 -10 -29 c-19 -56 12 -101 80 -115 33 -7 66 22 121 106 36 54 36 55 39 25 5
-65 22 -105 52 -120 72 -37 132 -1 229 139 37 54 52 96 34 96 -4 0 -49 -43
-100 -95 -89 -91 -133 -118 -133 -79 0 25 57 189 85 245 15 28 24 57 21 65 -7
19 -35 18 -58 -3 -17 -15 -20 -15 -41 5 -79 75 -150 40 -266 -130 -29 -44
-101 -98 -129 -98 -19 0 -14 45 13 102 32 68 31 92 -2 118 -22 17 -36 20 -65
16 -25 -4 -46 -1 -68 12 -30 17 -31 17 -50 -8 -11 -14 -40 -62 -66 -108 -45
-80 -79 -112 -119 -112 -14 0 -14 2 -1 23 26 39 39 122 26 162 -14 41 -53 75
-87 75 -35 0 -87 -56 -109 -117 -13 -37 -24 -53 -39 -55 -11 -2 -29 -20 -42
-44 -27 -49 -109 -136 -154 -163 -46 -28 -75 -26 -95 4 -23 36 -16 48 120 198
64 70 116 130 116 134 0 4 -10 17 -21 29 l-21 23 -56 -72 c-81 -105 -154 -188
-159 -183 -3 3 9 55 27 116 30 106 31 113 14 131 -26 29 -50 23 -99 -26z m548
-75 c-2 -50 -42 -134 -65 -138 -36 -7 -40 81 -7 135 41 65 75 67 72 3z m-785
5 c-5 -22 -122 -159 -126 -147 -6 18 46 109 78 136 35 29 53 33 48 11z m1492
-58 c-38 -62 -154 -217 -158 -212 -11 10 96 189 149 249 44 51 50 28 9 -37z
m-797 -114 c16 -9 14 -13 -22 -46 -23 -20 -46 -37 -51 -37 -16 0 -11 38 11 81
17 34 22 39 32 26 7 -8 20 -19 30 -24z"/>
</g>
</svg>
